<svg width="181" height="52" viewBox="0 0 181 52" fill="none" xmlns="http://www.w3.org/2000/svg">
<path d="M180.585 36.4106C180.585 35.2019 180.416 34.081 180.079 33.0481C179.741 32.0042 179.217 31.0922 178.507 30.312C176.97 28.6418 174.77 27.8066 171.906 27.8066H170.561V44.619H171.47C174.403 44.619 176.674 43.8608 178.28 42.3444C179.817 40.8939 180.585 38.916 180.585 36.4106Z" fill="url(#paint0_linear_1021_1023)"/>
<path d="M158.991 36.4106C158.991 35.2019 159.16 34.081 159.497 33.0481C159.835 32.0042 160.359 31.0922 161.069 30.312C162.606 28.6418 164.806 27.8066 167.67 27.8066H169.014V44.619H168.106C165.173 44.619 162.902 43.8608 161.296 42.3444C159.759 40.8939 158.991 38.916 158.991 36.4106Z" fill="url(#paint1_linear_1021_1023)"/>
<path d="M57.1599 19.1999H64.1209V28.9484C64.4217 28.5294 64.8084 28.1481 65.281 27.8044C65.7537 27.4606 66.2747 27.1652 66.844 26.9181C67.4134 26.6603 68.0149 26.4669 68.6487 26.338C69.2825 26.1984 69.9163 26.1286 70.5501 26.1286C71.3343 26.1286 72.0701 26.2575 72.7576 26.5153C73.4558 26.7624 74.0628 27.1652 74.5784 27.7238C75.094 28.2824 75.4969 29.0021 75.7869 29.883C76.0877 30.7531 76.2381 31.8058 76.2381 33.0412V43.9499H69.2771V34.7653C69.2771 33.9596 69.2073 33.2882 69.0677 32.7511C68.9388 32.214 68.7669 31.7843 68.552 31.4621C68.3372 31.1291 68.0901 30.8981 67.8108 30.7692C67.5423 30.6295 67.2683 30.5597 66.989 30.5597C66.6668 30.5597 66.3445 30.6242 66.0222 30.7531C65.7107 30.8712 65.4207 31.0431 65.1521 31.2687C64.8943 31.4943 64.6741 31.7628 64.4915 32.0744C64.3089 32.3859 64.1853 32.7296 64.1209 33.1056V43.9499H57.1599V19.1999ZM100.521 43.9499H93.576L93.721 42.838C93.7639 42.4943 93.8015 42.1076 93.8338 41.6779C93.866 41.2482 93.8929 40.8024 93.9143 40.3405C93.5921 40.9743 93.1839 41.5436 92.6897 42.0485C92.2063 42.5426 91.6692 42.9669 91.0784 43.3214C90.4876 43.6759 89.8592 43.9445 89.1931 44.1271C88.5271 44.3205 87.8557 44.4171 87.179 44.4171C86.3411 44.4171 85.5462 44.2775 84.7942 43.9982C84.0423 43.7296 83.3763 43.3 82.7962 42.7091C82.2268 42.1076 81.7703 41.3395 81.4265 40.4049C81.0935 39.4596 80.927 38.321 80.927 36.9889V26.5636H87.888V36.3444C87.888 37.0104 87.9471 37.569 88.0652 38.0202C88.1941 38.4713 88.366 38.8366 88.5808 39.1159C88.7957 39.3952 89.0428 39.5993 89.3221 39.7282C89.6013 39.8463 89.8968 39.9054 90.2083 39.9054C90.5735 39.9054 90.9388 39.8302 91.304 39.6798C91.68 39.5294 92.0183 39.3253 92.3191 39.0675C92.6306 38.8097 92.8938 38.5089 93.1087 38.1652C93.3343 37.8107 93.4846 37.4347 93.5598 37.0373V26.5636H100.521V43.9499ZM105.564 26.5636H112.654C112.471 27.1437 112.343 27.6862 112.267 28.1911C112.203 28.6852 112.171 29.2062 112.171 29.7541C112.471 29.2277 112.864 28.7443 113.347 28.3039C113.83 27.8634 114.362 27.4821 114.942 27.1598C115.522 26.8376 116.129 26.5851 116.763 26.4025C117.408 26.2199 118.036 26.1286 118.648 26.1286C119.551 26.1286 120.426 26.3004 121.275 26.6442C122.123 26.9879 122.87 27.5197 123.514 28.2394C124.17 28.9591 124.691 29.883 125.077 31.0109C125.475 32.1281 125.674 33.4601 125.674 35.007C125.674 36.7472 125.453 38.2189 125.013 39.422C124.583 40.6144 124.019 41.5812 123.321 42.3224C122.623 43.0636 121.833 43.6007 120.952 43.9337C120.082 44.256 119.207 44.4171 118.326 44.4171C117.692 44.4171 117.074 44.3473 116.473 44.2077C115.882 44.0788 115.329 43.8961 114.813 43.6598C114.308 43.4128 113.857 43.1281 113.46 42.8058C113.062 42.4728 112.751 42.1129 112.525 41.7262V50.9108H105.564V26.5636ZM112.525 35.297C112.525 36.1779 112.622 36.9137 112.815 37.5045C113.009 38.0954 113.261 38.5734 113.573 38.9386C113.895 39.2931 114.255 39.5509 114.652 39.7121C115.06 39.8625 115.474 39.9377 115.893 39.9377C116.312 39.9377 116.72 39.8625 117.117 39.7121C117.515 39.5509 117.869 39.2931 118.181 38.9386C118.492 38.5734 118.74 38.0954 118.922 37.5045C119.116 36.903 119.212 36.1618 119.212 35.2809C119.212 34.4108 119.116 33.6803 118.922 33.0895C118.74 32.4879 118.492 32.0045 118.181 31.6393C117.869 31.2741 117.515 31.0163 117.117 30.8659C116.731 30.7047 116.328 30.6242 115.909 30.6242C115.49 30.6242 115.076 30.7047 114.668 30.8659C114.271 31.0163 113.911 31.2741 113.589 31.6393C113.266 32.0045 113.009 32.4879 112.815 33.0895C112.622 33.6803 112.525 34.4162 112.525 35.297ZM129.637 26.5636H136.598V43.9499H129.637V26.5636ZM133.134 22.9865C132.522 22.9865 131.947 22.922 131.41 22.7931C130.873 22.6642 130.406 22.487 130.008 22.2614C129.621 22.0358 129.31 21.7619 129.074 21.4396C128.848 21.1173 128.735 20.7628 128.735 20.3761C128.735 19.9464 128.848 19.5705 129.074 19.2482C129.299 18.9152 129.611 18.6413 130.008 18.4264C130.406 18.2116 130.873 18.0504 131.41 17.943C131.947 17.8356 132.527 17.7819 133.15 17.7819C133.773 17.7819 134.353 17.8356 134.89 17.943C135.438 18.0504 135.911 18.2116 136.308 18.4264C136.706 18.6413 137.017 18.9152 137.243 19.2482C137.469 19.5705 137.581 19.9464 137.581 20.3761C137.581 20.7628 137.463 21.1173 137.227 21.4396C137.001 21.7619 136.69 22.0358 136.292 22.2614C135.895 22.487 135.422 22.6642 134.874 22.7931C134.337 22.922 133.757 22.9865 133.134 22.9865ZM150.472 44.4171C149.473 44.4171 148.517 44.2936 147.604 44.0465C146.691 43.8102 145.885 43.4074 145.187 42.838C144.499 42.258 143.946 41.4953 143.527 40.55C143.119 39.5939 142.915 38.4069 142.915 36.9889V30.5597H139.708V29.5124L147.298 21.2624H149.876V26.5636H155.032C154.903 27.2082 154.785 27.8581 154.678 28.5133C154.581 29.1686 154.527 29.8507 154.516 30.5597H149.876V36.9245C149.876 37.3112 149.903 37.6872 149.956 38.0524C150.021 38.4069 150.144 38.7238 150.327 39.0031C150.51 39.2716 150.773 39.4919 151.116 39.6637C151.46 39.8249 151.917 39.9054 152.486 39.9054C152.851 39.9054 153.254 39.8732 153.695 39.8087C154.135 39.7336 154.635 39.5993 155.193 39.4059L155.58 43.5793C154.903 43.8263 154.124 44.0251 153.243 44.1754C152.373 44.3366 151.449 44.4171 150.472 44.4171Z" fill="#5669FF"/>
<path d="M57.1599 19.1999V18.1999H56.1599V19.1999H57.1599ZM64.1209 19.1999H65.1209V18.1999H64.1209V19.1999ZM64.1209 28.9484H63.1209V32.0559L64.9332 29.5316L64.1209 28.9484ZM66.844 26.9181L67.2421 27.8355L67.2494 27.8323L67.2565 27.8291L66.844 26.9181ZM68.6487 26.338L68.848 27.318L68.856 27.3164L68.8639 27.3146L68.6487 26.338ZM72.7576 26.5153L72.4065 27.4516L72.4152 27.4549L72.424 27.458L72.7576 26.5153ZM75.7869 29.883L74.8371 30.1957L74.8394 30.2027L74.8418 30.2097L75.7869 29.883ZM76.2381 43.9499V44.9499H77.2381V43.9499H76.2381ZM69.2771 43.9499H68.2771V44.9499H69.2771V43.9499ZM69.0677 32.7511L68.0953 32.9845L68.0975 32.9937L68.0998 33.0028L69.0677 32.7511ZM68.552 31.4621L67.7117 32.0042L67.7158 32.0105L67.72 32.0168L68.552 31.4621ZM67.8108 30.7692L67.3495 31.6564L67.3704 31.6673L67.3918 31.6772L67.8108 30.7692ZM66.0222 30.7531L66.3769 31.6881L66.3853 31.6849L66.3936 31.6816L66.0222 30.7531ZM65.1521 31.2687L64.5089 30.503L64.5012 30.5095L64.4936 30.5161L65.1521 31.2687ZM64.1209 33.1056L63.1353 32.9367L63.1209 33.0205V33.1056H64.1209ZM64.1209 43.9499V44.9499H65.1209V43.9499H64.1209ZM57.1599 43.9499H56.1599V44.9499H57.1599V43.9499ZM57.1599 20.1999H64.1209V18.1999H57.1599V20.1999ZM63.1209 19.1999V28.9484H65.1209V19.1999H63.1209ZM64.9332 29.5316C65.1641 29.21 65.4715 28.9023 65.8692 28.6131L64.6929 26.9956C64.1453 27.3939 63.6792 27.8489 63.3086 28.3652L64.9332 29.5316ZM65.8692 28.6131C66.2791 28.315 66.7358 28.0552 67.2421 27.8355L66.4459 26.0008C65.8136 26.2752 65.2282 26.6062 64.6929 26.9956L65.8692 28.6131ZM67.2565 27.8291C67.7553 27.6032 68.2851 27.4325 68.848 27.318L68.4494 25.3581C67.7447 25.5014 67.0714 25.7174 66.4315 26.0072L67.2565 27.8291ZM68.8639 27.3146C69.4287 27.1902 69.9904 27.1286 70.5501 27.1286V25.1286C69.8422 25.1286 69.1363 25.2066 68.4335 25.3615L68.8639 27.3146ZM70.5501 27.1286C71.2226 27.1286 71.8387 27.2387 72.4065 27.4516L73.1087 25.579C72.3015 25.2763 71.446 25.1286 70.5501 25.1286V27.1286ZM72.424 27.458C72.9649 27.6494 73.4352 27.9596 73.8436 28.4021L75.3132 27.0455C74.6903 26.3707 73.9468 25.8753 73.0912 25.5726L72.424 27.458ZM73.8436 28.4021C74.2433 28.8351 74.5821 29.4214 74.8371 30.1957L76.7367 29.5702C76.4116 28.5828 75.9447 27.7296 75.3132 27.0455L73.8436 28.4021ZM74.8418 30.2097C75.0962 30.9457 75.2381 31.8815 75.2381 33.0412H77.2381C77.2381 31.7302 77.0792 30.5605 76.732 29.5563L74.8418 30.2097ZM75.2381 33.0412V43.9499H77.2381V33.0412H75.2381ZM76.2381 42.9499H69.2771V44.9499H76.2381V42.9499ZM70.2771 43.9499V34.7653H68.2771V43.9499H70.2771ZM70.2771 34.7653C70.2771 33.9093 70.2037 33.1466 70.0355 32.4995L68.0998 33.0028C68.2109 33.4299 68.2771 34.01 68.2771 34.7653H70.2771ZM70.04 32.5178C69.8944 31.9109 69.6857 31.3598 69.3841 30.9074L67.72 32.0168C67.8481 32.2089 67.9831 32.5171 68.0953 32.9845L70.04 32.5178ZM69.3923 30.9199C69.1039 30.4729 68.7247 30.0896 68.2299 29.8612L67.3918 31.6772C67.4556 31.7066 67.5705 31.7853 67.7117 32.0042L69.3923 30.9199ZM68.2722 29.882C67.8733 29.6746 67.4422 29.5597 66.989 29.5597V31.5597C67.0945 31.5597 67.2112 31.5845 67.3495 31.6564L68.2722 29.882ZM66.989 29.5597C66.53 29.5597 66.0821 29.6521 65.6509 29.8246L66.3936 31.6816C66.607 31.5962 66.8035 31.5597 66.989 31.5597V29.5597ZM65.6676 29.8181C65.2456 29.9781 64.8589 30.209 64.5089 30.503L65.7953 32.0344C65.9825 31.8772 66.1758 31.7644 66.3769 31.6881L65.6676 29.8181ZM64.4936 30.5161C64.1506 30.8162 63.8628 31.1694 63.6288 31.5687L65.3542 32.5801C65.4854 32.3562 65.638 32.1723 65.8106 32.0213L64.4936 30.5161ZM63.6288 31.5687C63.3819 31.9899 63.2189 32.4487 63.1353 32.9367L65.1065 33.2746C65.1518 33.0106 65.2359 32.7819 65.3542 32.5801L63.6288 31.5687ZM63.1209 33.1056V43.9499H65.1209V33.1056H63.1209ZM64.1209 42.9499H57.1599V44.9499H64.1209V42.9499ZM58.1599 43.9499V19.1999H56.1599V43.9499H58.1599ZM100.521 43.9499V44.9499H101.521V43.9499H100.521ZM93.576 43.9499L92.5844 43.8205L92.4371 44.9499H93.576V43.9499ZM93.721 42.838L94.7126 42.9674L94.7133 42.9621L93.721 42.838ZM93.9143 40.3405L94.9133 40.3869L93.023 39.8872L93.9143 40.3405ZM92.6897 42.0485L91.9751 41.349L91.9749 41.3492L92.6897 42.0485ZM89.1931 44.1271L88.9287 43.1627L88.9215 43.1647L88.9143 43.1668L89.1931 44.1271ZM84.7942 43.9982L85.1424 43.0607L85.1306 43.0565L84.7942 43.9982ZM82.7962 42.7091L82.0699 43.3965L82.0762 43.4032L82.0826 43.4097L82.7962 42.7091ZM81.4265 40.4049L80.4833 40.7372L80.488 40.7501L81.4265 40.4049ZM80.927 26.5636V25.5636H79.927V26.5636H80.927ZM87.888 26.5636H88.888V25.5636H87.888V26.5636ZM88.0652 38.0202L87.0978 38.2735L87.1006 38.2842L87.1037 38.2949L88.0652 38.0202ZM89.3221 39.7282L88.903 40.6361L88.9176 40.6429L88.9324 40.6491L89.3221 39.7282ZM91.304 39.6798L90.9326 38.7513L90.9232 38.7552L91.304 39.6798ZM92.3191 39.0675L91.6816 38.2971L91.6749 38.3027L91.6683 38.3083L92.3191 39.0675ZM93.1087 38.1652L92.265 37.6283L92.2607 37.6352L93.1087 38.1652ZM93.5598 37.0373L94.5424 37.2232L94.5598 37.131V37.0373H93.5598ZM93.5598 26.5636V25.5636H92.5598V26.5636H93.5598ZM100.521 26.5636H101.521V25.5636H100.521V26.5636ZM100.521 42.9499H93.576V44.9499H100.521V42.9499ZM94.5676 44.0792L94.7126 42.9674L92.7294 42.7087L92.5844 43.8205L94.5676 44.0792ZM94.7133 42.9621C94.7587 42.5986 94.7978 42.195 94.831 41.7527L92.8366 41.6031C92.8053 42.0201 92.7692 42.39 92.7287 42.714L94.7133 42.9621ZM94.831 41.7527C94.864 41.3129 94.8914 40.8576 94.9133 40.3869L92.9154 40.294C92.8943 40.7472 92.868 41.1835 92.8366 41.6031L94.831 41.7527ZM93.023 39.8872C92.7464 40.431 92.3977 40.9172 91.9751 41.349L93.4044 42.748C93.9701 42.17 94.4377 41.5175 94.8057 40.7937L93.023 39.8872ZM91.9749 41.3492C91.551 41.7825 91.0812 42.1536 90.5639 42.4639L91.5929 44.1789C92.2572 43.7803 92.8616 43.3028 93.4046 42.7478L91.9749 41.3492ZM90.5639 42.4639C90.0514 42.7715 89.5071 43.0041 88.9287 43.1627L89.4576 45.0915C90.2112 44.8849 90.9238 44.5804 91.5929 44.1789L90.5639 42.4639ZM88.9143 43.1668C88.3367 43.3345 87.7591 43.4171 87.179 43.4171V45.4171C87.9524 45.4171 88.7176 45.3065 89.472 45.0875L88.9143 43.1668ZM87.179 43.4171C86.4546 43.4171 85.778 43.2969 85.1424 43.0608L84.446 44.9356C85.3143 45.2581 86.2276 45.4171 87.179 45.4171V43.4171ZM85.1306 43.0565C84.5263 42.8406 83.9879 42.4956 83.5097 42.0085L82.0826 43.4097C82.7646 44.1043 83.5583 44.6186 84.4579 44.9399L85.1306 43.0565ZM83.5225 42.0218C83.0632 41.5365 82.6713 40.8923 82.3651 40.0597L80.488 40.7501C80.8693 41.7868 81.3905 42.6787 82.0699 43.3965L83.5225 42.0218ZM82.3697 40.0727C82.0844 39.2627 81.927 38.2428 81.927 36.9889H79.927C79.927 38.3991 80.1027 39.6565 80.4834 40.7372L82.3697 40.0727ZM81.927 36.9889V26.5636H79.927V36.9889H81.927ZM80.927 27.5636H87.888V25.5636H80.927V27.5636ZM86.888 26.5636V36.3444H88.888V26.5636H86.888ZM86.888 36.3444C86.888 37.0627 86.951 37.7127 87.0978 38.2735L89.0326 37.7668C88.9431 37.4253 88.888 36.9581 88.888 36.3444H86.888ZM87.1037 38.2949C87.2564 38.8294 87.4756 39.3191 87.7882 39.7256L89.3735 38.5062C89.2564 38.354 89.1318 38.1133 89.0267 37.7455L87.1037 38.2949ZM87.7882 39.7256C88.0872 40.1143 88.4568 40.4302 88.903 40.6361L89.7411 38.8202C89.6287 38.7683 89.5042 38.6761 89.3735 38.5062L87.7882 39.7256ZM88.9324 40.6491C89.3384 40.8209 89.7666 40.9054 90.2083 40.9054V38.9054C90.0269 38.9054 89.8643 38.8718 89.7117 38.8072L88.9324 40.6491ZM90.2083 40.9054C90.7145 40.9054 91.2086 40.8006 91.6847 40.6045L90.9232 38.7552C90.6689 38.8599 90.4326 38.9054 90.2083 38.9054V40.9054ZM91.6754 40.6083C92.1508 40.4181 92.5841 40.1575 92.9699 39.8268L91.6683 38.3083C91.4526 38.4932 91.2091 38.6408 90.9326 38.7514L91.6754 40.6083ZM92.9567 39.8379C93.351 39.5116 93.6852 39.1296 93.9567 38.6952L92.2607 37.6352C92.1025 37.8883 91.9103 38.1078 91.6816 38.2971L92.9567 39.8379ZM93.9523 38.7021C94.2434 38.2447 94.4427 37.7502 94.5424 37.2232L92.5773 36.8514C92.5266 37.1193 92.4251 37.3767 92.265 37.6283L93.9523 38.7021ZM94.5598 37.0373V26.5636H92.5598V37.0373H94.5598ZM93.5598 27.5636H100.521V25.5636H93.5598V27.5636ZM99.5208 26.5636V43.9499H101.521V26.5636H99.5208ZM105.564 26.5636V25.5636H104.564V26.5636H105.564ZM112.654 26.5636L113.608 26.8639L114.017 25.5636H112.654V26.5636ZM112.267 28.1911L111.278 28.0438L111.277 28.0527L111.276 28.0617L112.267 28.1911ZM112.171 29.7541H111.171V33.5196L113.039 30.2502L112.171 29.7541ZM116.763 26.4025L116.49 25.4404L116.486 25.4416L116.763 26.4025ZM123.514 28.2394L122.769 28.9066L122.775 28.9126L123.514 28.2394ZM125.077 31.0109L124.131 31.3352L124.135 31.3461L125.077 31.0109ZM125.013 39.422L124.074 39.0783L124.072 39.083L125.013 39.422ZM120.952 43.9337L121.3 44.8715L121.306 44.8691L120.952 43.9337ZM116.473 44.2077L116.699 43.2335L116.686 43.2307L116.473 44.2077ZM114.813 43.6598L114.374 44.558L114.385 44.5636L114.397 44.5689L114.813 43.6598ZM113.46 42.8058L112.818 43.5723L112.824 43.5775L112.83 43.5826L113.46 42.8058ZM112.525 41.7262L113.389 41.2224L111.525 38.0273V41.7262H112.525ZM112.525 50.9108V51.9108H113.525V50.9108H112.525ZM105.564 50.9108H104.564V51.9108H105.564V50.9108ZM113.573 38.9386L112.812 39.5876L112.822 39.5996L112.833 39.6113L113.573 38.9386ZM114.652 39.7121L114.276 40.6388L114.291 40.6448L114.306 40.6504L114.652 39.7121ZM117.117 39.7121L117.471 40.6474L117.482 40.6432L117.493 40.6388L117.117 39.7121ZM118.181 38.9386L118.932 39.5987L118.937 39.5932L118.942 39.5876L118.181 38.9386ZM118.922 37.5045L117.97 37.1985L117.967 37.2092L118.922 37.5045ZM118.922 33.0895L117.965 33.38L117.968 33.3903L117.972 33.4005L118.922 33.0895ZM117.117 30.8659L116.733 31.789L116.748 31.7953L116.764 31.8012L117.117 30.8659ZM114.668 30.8659L115.022 31.8012L115.029 31.7986L115.035 31.796L114.668 30.8659ZM112.815 33.0895L113.766 33.4006L113.767 33.3955L112.815 33.0895ZM105.564 27.5636H112.654V25.5636H105.564V27.5636ZM111.7 26.2633C111.505 26.8843 111.362 27.4783 111.278 28.0438L113.256 28.3384C113.323 27.894 113.438 27.4032 113.608 26.8639L111.7 26.2633ZM111.276 28.0617C111.205 28.6027 111.171 29.1672 111.171 29.7541H113.171C113.171 29.2453 113.201 28.7677 113.259 28.3204L111.276 28.0617ZM113.039 30.2502C113.284 29.8214 113.608 29.4187 114.02 29.0431L112.673 27.5647C112.119 28.0699 111.659 28.634 111.302 29.2579L113.039 30.2502ZM114.02 29.0431C114.446 28.6555 114.914 28.3192 115.428 28.034L114.457 26.2857C113.81 26.6449 113.215 27.0714 112.673 27.5647L114.02 29.0431ZM115.428 28.034C115.942 27.7482 116.479 27.525 117.04 27.3634L116.486 25.4416C115.779 25.6453 115.102 25.9269 114.457 26.2857L115.428 28.034ZM117.036 27.3646C117.6 27.2048 118.136 27.1286 118.648 27.1286V25.1286C117.936 25.1286 117.215 25.235 116.49 25.4404L117.036 27.3646ZM118.648 27.1286C119.42 27.1286 120.168 27.2749 120.899 27.571L121.65 25.7173C120.684 25.326 119.681 25.1286 118.648 25.1286V27.1286ZM120.899 27.571C121.599 27.8544 122.221 28.294 122.769 28.9065L124.259 27.5723C123.519 26.7454 122.648 26.1215 121.65 25.7173L120.899 27.571ZM122.775 28.9126C123.32 29.5114 123.779 30.3081 124.131 31.3352L126.023 30.6866C125.602 29.4578 125.019 28.4069 124.254 27.5662L122.775 28.9126ZM124.135 31.3461C124.485 32.3285 124.674 33.5414 124.674 35.007H126.674C126.674 33.3788 126.465 31.9276 126.02 30.6757L124.135 31.3461ZM124.674 35.007C124.674 36.6692 124.462 38.0169 124.074 39.0783L125.952 39.7658C126.444 38.4209 126.674 36.8253 126.674 35.007H124.674ZM124.072 39.083C123.678 40.1771 123.177 41.0165 122.593 41.6367L124.049 43.0081C124.861 42.1459 125.489 41.0518 125.954 39.761L124.072 39.083ZM122.593 41.6367C121.99 42.2765 121.326 42.7234 120.599 42.9984L121.306 44.8691C122.34 44.4781 123.255 43.8507 124.049 43.0081L122.593 41.6367ZM120.605 42.996C119.84 43.2793 119.082 43.4171 118.326 43.4171V45.4171C119.332 45.4171 120.324 45.2327 121.3 44.8715L120.605 42.996ZM118.326 43.4171C117.766 43.4171 117.225 43.3556 116.699 43.2336L116.247 45.1818C116.924 45.3391 117.618 45.4171 118.326 45.4171V43.4171ZM116.686 43.2307C116.161 43.116 115.676 42.9553 115.23 42.7508L114.397 44.5689C114.982 44.837 115.603 45.0415 116.26 45.1847L116.686 43.2307ZM115.253 42.7616C114.809 42.5445 114.423 42.2994 114.09 42.0291L112.83 43.5826C113.291 43.9568 113.808 44.281 114.374 44.558L115.253 42.7616ZM114.102 42.0393C113.779 41.7689 113.548 41.495 113.389 41.2224L111.661 42.2301C111.954 42.7309 112.345 43.1767 112.818 43.5723L114.102 42.0393ZM111.525 41.7262V50.9108H113.525V41.7262H111.525ZM112.525 49.9108H105.564V51.9108H112.525V49.9108ZM106.564 50.9108V26.5636H104.564V50.9108H106.564ZM111.525 35.297C111.525 36.2432 111.628 37.0921 111.865 37.8156L113.766 37.1935C113.616 36.7353 113.525 36.1126 113.525 35.297H111.525ZM111.865 37.8156C112.087 38.4954 112.395 39.0986 112.812 39.5876L114.333 38.2897C114.127 38.0482 113.93 37.6953 113.766 37.1935L111.865 37.8156ZM112.833 39.6113C113.244 40.0636 113.725 40.4151 114.276 40.6388L115.028 38.7853C114.785 38.6868 114.546 38.5226 114.312 38.266L112.833 39.6113ZM114.306 40.6504C114.821 40.84 115.351 40.9377 115.893 40.9377V38.9377C115.596 38.9377 115.3 38.8849 114.998 38.7737L114.306 40.6504ZM115.893 40.9377C116.434 40.9377 116.962 40.8399 117.471 40.6474L116.764 38.7768C116.478 38.885 116.189 38.9377 115.893 38.9377V40.9377ZM117.493 40.6388C118.049 40.4135 118.528 40.0582 118.932 39.5987L117.43 38.2785C117.21 38.528 116.981 38.6883 116.742 38.7853L117.493 40.6388ZM118.942 39.5876C119.363 39.0937 119.666 38.4847 119.878 37.7999L117.967 37.2092C117.813 37.7061 117.622 38.0531 117.42 38.2897L118.942 39.5876ZM119.874 37.8106C120.109 37.0797 120.212 36.228 120.212 35.2809H118.212C118.212 36.0956 118.122 36.7263 117.97 37.1985L119.874 37.8106ZM120.212 35.2809C120.212 34.344 120.109 33.5009 119.873 32.7785L117.972 33.4005C118.122 33.8597 118.212 34.4776 118.212 35.2809H120.212ZM119.879 32.799C119.668 32.1046 119.366 31.4874 118.942 30.9904L117.42 32.2883C117.619 32.5217 117.811 32.8712 117.965 33.38L119.879 32.799ZM118.942 30.9904C118.535 30.5138 118.046 30.148 117.471 29.9306L116.764 31.8012C116.984 31.8845 117.204 32.0344 117.42 32.2883L118.942 30.9904ZM117.502 29.9428C116.993 29.7309 116.46 29.6242 115.909 29.6242V31.6242C116.196 31.6242 116.468 31.6786 116.733 31.789L117.502 29.9428ZM115.909 29.6242C115.358 29.6242 114.821 29.7307 114.301 29.9357L115.035 31.796C115.332 31.6788 115.622 31.6242 115.909 31.6242V29.6242ZM114.314 29.9306C113.744 30.1465 113.253 30.5083 112.839 30.9777L114.338 32.3009C114.569 32.0398 114.798 31.886 115.022 31.8012L114.314 29.9306ZM112.839 30.9777C112.403 31.4721 112.087 32.088 111.863 32.7835L113.767 33.3955C113.93 32.8878 114.13 32.537 114.338 32.3009L112.839 30.9777ZM111.865 32.7785C111.628 33.5019 111.525 34.3509 111.525 35.297H113.525C113.525 34.4815 113.616 33.8587 113.766 33.4005L111.865 32.7785ZM129.637 26.5636V25.5636H128.637V26.5636H129.637ZM136.598 26.5636H137.598V25.5636H136.598V26.5636ZM136.598 43.9499V44.9499H137.598V43.9499H136.598ZM129.637 43.9499H128.637V44.9499H129.637V43.9499ZM130.008 22.2614L129.504 23.1252L129.514 23.1311L130.008 22.2614ZM129.074 21.4396L128.254 22.0131L128.261 22.0221L128.267 22.031L129.074 21.4396ZM129.074 19.2482L129.893 19.8217L129.897 19.8154L129.901 19.809L129.074 19.2482ZM134.89 17.943L134.694 18.9236L134.698 18.9243L134.89 17.943ZM137.243 19.2482L136.415 19.809L136.419 19.8154L136.424 19.8217L137.243 19.2482ZM137.227 21.4396L136.42 20.8482L136.414 20.8571L136.408 20.8661L137.227 21.4396ZM134.874 22.7931L134.645 21.8197L134.641 21.8207L134.874 22.7931ZM129.637 27.5636H136.598V25.5636H129.637V27.5636ZM135.598 26.5636V43.9499H137.598V26.5636H135.598ZM136.598 42.9499H129.637V44.9499H136.598V42.9499ZM130.637 43.9499V26.5636H128.637V43.9499H130.637ZM133.134 21.9865C132.592 21.9865 132.096 21.9294 131.643 21.8207L131.177 23.7655C131.798 23.9146 132.452 23.9865 133.134 23.9865V21.9865ZM131.643 21.8207C131.179 21.7093 130.803 21.5626 130.502 21.3917L129.514 23.1311C130.008 23.4114 130.567 23.6191 131.177 23.7655L131.643 21.8207ZM130.512 21.3976C130.229 21.2328 130.026 21.0473 129.88 20.8482L128.267 22.031C128.594 22.4764 129.013 22.8388 129.504 23.1252L130.512 21.3976ZM129.893 20.8661C129.783 20.7089 129.735 20.5539 129.735 20.3761H127.735C127.735 20.9718 127.913 21.5258 128.254 22.0131L129.893 20.8661ZM129.735 20.3761C129.735 20.1317 129.796 19.9603 129.893 19.8217L128.254 18.6747C127.9 19.1807 127.735 19.7611 127.735 20.3761H129.735ZM129.901 19.809C130.026 19.6248 130.21 19.4541 130.484 19.3061L129.533 17.5467C129.011 17.8284 128.572 18.2056 128.246 18.6874L129.901 19.809ZM130.484 19.3061C130.777 19.1474 131.147 19.0155 131.606 18.9236L131.214 16.9624C130.599 17.0854 130.034 17.2757 129.533 17.5467L130.484 19.3061ZM131.606 18.9236C132.07 18.8307 132.584 18.7819 133.15 18.7819V16.7819C132.47 16.7819 131.824 16.8405 131.214 16.9624L131.606 18.9236ZM133.15 18.7819C133.716 18.7819 134.23 18.8307 134.694 18.9236L135.087 16.9624C134.477 16.8405 133.83 16.7819 133.15 16.7819V18.7819ZM134.698 18.9243C135.169 19.0167 135.542 19.149 135.833 19.3061L136.784 17.5467C136.28 17.2742 135.707 17.0842 135.083 16.9617L134.698 18.9243ZM135.833 19.3061C136.107 19.4541 136.29 19.6248 136.415 19.809L138.071 18.6874C137.745 18.2056 137.305 17.8284 136.784 17.5467L135.833 19.3061ZM136.424 19.8217C136.521 19.9603 136.581 20.1317 136.581 20.3761H138.581C138.581 19.7611 138.416 19.1807 138.062 18.6747L136.424 19.8217ZM136.581 20.3761C136.581 20.5427 136.535 20.6914 136.42 20.8482L138.033 22.031C138.391 21.5433 138.581 20.983 138.581 20.3761H136.581ZM136.408 20.8661C136.28 21.0485 136.088 21.2276 135.799 21.3917L136.786 23.1311C137.292 22.844 137.723 22.4752 138.046 22.0131L136.408 20.8661ZM135.799 21.3917C135.501 21.5609 135.121 21.7078 134.645 21.8197L135.103 23.7665C135.723 23.6207 136.289 23.413 136.786 23.1311L135.799 21.3917ZM134.641 21.8207C134.189 21.9291 133.688 21.9865 133.134 21.9865V23.9865C133.826 23.9865 134.485 23.9149 135.108 23.7655L134.641 21.8207ZM147.604 44.0465L147.865 43.0812L147.854 43.0784L147.604 44.0465ZM145.187 42.838L144.542 43.6023L144.548 43.6078L144.555 43.6131L145.187 42.838ZM143.527 40.55L142.607 40.9427L142.613 40.9551L143.527 40.55ZM142.915 30.5597H143.915V29.5597H142.915V30.5597ZM139.708 30.5597H138.708V31.5597H139.708V30.5597ZM139.708 29.5124L138.972 28.8353L138.708 29.1224V29.5124H139.708ZM147.298 21.2624V20.2624H146.859L146.562 20.5853L147.298 21.2624ZM149.876 21.2624H150.876V20.2624H149.876V21.2624ZM149.876 26.5636H148.876V27.5636H149.876V26.5636ZM155.032 26.5636L156.013 26.7597L156.252 25.5636H155.032V26.5636ZM154.678 28.5133L153.691 28.3516L153.689 28.3595L153.688 28.3674L154.678 28.5133ZM154.516 30.5597V31.5597H155.501L155.516 30.5749L154.516 30.5597ZM149.876 30.5597V29.5597H148.876V30.5597H149.876ZM149.956 38.0524L148.967 38.1979L148.969 38.2146L148.972 38.2313L149.956 38.0524ZM150.327 39.0031L149.49 39.5503L149.495 39.5579L149.5 39.5654L150.327 39.0031ZM151.116 39.6637L150.669 40.5582L150.681 40.5638L150.692 40.5692L151.116 39.6637ZM153.695 39.8087L153.839 40.7982L153.851 40.7965L153.863 40.7945L153.695 39.8087ZM155.193 39.4059L156.189 39.3136L156.071 38.0438L154.866 38.4609L155.193 39.4059ZM155.58 43.5793L155.923 44.5186L156.647 44.2543L156.576 43.487L155.58 43.5793ZM153.243 44.1754L153.075 43.1896L153.061 43.1922L153.243 44.1754ZM150.472 43.4171C149.556 43.4171 148.688 43.304 147.865 43.0813L147.343 45.0118C148.345 45.2832 149.39 45.4171 150.472 45.4171V43.4171ZM147.854 43.0784C147.074 42.8765 146.4 42.537 145.819 42.063L144.555 43.6131C145.37 44.2778 146.307 44.7439 147.353 45.0146L147.854 43.0784ZM145.832 42.0738C145.276 41.6051 144.808 40.9723 144.441 40.1448L142.613 40.9551C143.084 42.0183 143.722 42.9109 144.542 43.6023L145.832 42.0738ZM144.447 40.1573C144.107 39.3617 143.915 38.3181 143.915 36.9889H141.915C141.915 38.4957 142.131 39.8261 142.607 40.9426L144.447 40.1573ZM143.915 36.9889V30.5597H141.915V36.9889H143.915ZM142.915 29.5597H139.708V31.5597H142.915V29.5597ZM140.708 30.5597V29.5124H138.708V30.5597H140.708ZM140.444 30.1894L148.034 21.9394L146.562 20.5853L138.972 28.8353L140.444 30.1894ZM147.298 22.2624H149.876V20.2624H147.298V22.2624ZM148.876 21.2624V26.5636H150.876V21.2624H148.876ZM149.876 27.5636H155.032V25.5636H149.876V27.5636ZM154.051 26.3675C153.92 27.0236 153.8 27.6849 153.691 28.3516L155.664 28.6751C155.77 28.0312 155.886 27.3928 156.013 26.7597L154.051 26.3675ZM153.688 28.3674C153.585 29.0689 153.528 29.7948 153.517 30.5446L155.516 30.5749C155.526 29.9066 155.577 29.2683 155.667 28.6593L153.688 28.3674ZM154.516 29.5597H149.876V31.5597H154.516V29.5597ZM148.876 30.5597V36.9245H150.876V30.5597H148.876ZM148.876 36.9245C148.876 37.3576 148.906 37.7823 148.967 38.1979L150.946 37.9069C150.899 37.5921 150.876 37.2648 150.876 36.9245H148.876ZM148.972 38.2313C149.059 38.7066 149.229 39.1506 149.49 39.5503L151.164 38.4558C151.06 38.2969 150.983 38.1072 150.94 37.8735L148.972 38.2313ZM149.5 39.5654C149.795 39.9992 150.201 40.3239 150.669 40.5582L151.564 38.7693C151.345 38.6598 151.224 38.5441 151.154 38.4408L149.5 39.5654ZM150.692 40.5692C151.218 40.8158 151.837 40.9054 152.486 40.9054V38.9054C151.997 38.9054 151.702 38.8339 151.541 38.7583L150.692 40.5692ZM152.486 40.9054C152.909 40.9054 153.361 40.8682 153.839 40.7982L153.55 38.8193C153.147 38.8782 152.794 38.9054 152.486 38.9054V40.9054ZM153.863 40.7945C154.371 40.7077 154.925 40.5568 155.52 40.3509L154.866 38.4609C154.344 38.6417 153.899 38.7594 153.526 38.823L153.863 40.7945ZM154.197 39.4982L154.584 43.6715L156.576 43.487L156.189 39.3136L154.197 39.4982ZM155.237 42.6399C154.628 42.862 153.91 43.0472 153.075 43.1897L153.412 45.1612C154.339 45.0029 155.178 44.7906 155.923 44.5186L155.237 42.6399ZM153.061 43.1922C152.257 43.3411 151.395 43.4171 150.472 43.4171V45.4171C151.504 45.4171 152.489 45.3321 153.426 45.1587L153.061 43.1922Z" fill="#5669FF"/>
<path d="M48.5993 30.9165L48.7036 30.9658C51.1277 32.2451 52.066 35.1236 50.7888 37.4362C46.3576 45.432 37.4432 50.8937 27.1994 50.8199C12.9154 50.7215 1.21194 39.7488 1.00341 26.2667C0.768823 12.3417 12.6548 1 27.3819 1C35.6968 1 43.1255 4.64116 47.9477 10.3243L38.5119 15.1464C35.4883 12.3663 31.2917 10.6934 26.7041 10.8656C18.2849 11.1854 11.5079 17.7542 11.4036 25.7254C11.2993 34.1395 18.4935 40.9789 27.3558 40.9789C33.5073 40.9789 38.8507 37.7068 41.5094 32.8847C42.8648 30.4737 46.0709 29.588 48.5993 30.9165Z" fill="url(#paint2_linear_1021_1023)" stroke="#5669FF" stroke-miterlimit="10"/>
<defs>
<linearGradient id="paint0_linear_1021_1023" x1="180.585" y1="27.8066" x2="156.015" y2="32.5252" gradientUnits="userSpaceOnUse">
<stop stop-color="#00F8FF"/>
<stop offset="1" stop-color="#1D1E24" stop-opacity="0.8"/>
</linearGradient>
<linearGradient id="paint1_linear_1021_1023" x1="158.991" y1="27.8066" x2="183.561" y2="32.5252" gradientUnits="userSpaceOnUse">
<stop stop-color="#00F8FF"/>
<stop offset="1" stop-color="#1D1E24" stop-opacity="0.8"/>
</linearGradient>
<linearGradient id="paint2_linear_1021_1023" x1="26.1799" y1="1" x2="26.1799" y2="50.8206" gradientUnits="userSpaceOnUse">
<stop stop-color="#00F8FF"/>
<stop offset="0.994792" stop-color="#1D1E24" stop-opacity="0.8"/>
</linearGradient>
</defs>
</svg>
